<?xml version="1.0" encoding="utf-8"?>
<!-- Generator: Adobe Illustrator 22.0.1, SVG Export Plug-In . SVG Version: 6.00 Build 0)  -->
<svg version="1.1" xmlns="http://www.w3.org/2000/svg" xmlns:xlink="http://www.w3.org/1999/xlink" x="0px" y="0px"
	 viewBox="0 0 200 200" style="enable-background:new 0 0 200 200;" xml:space="preserve">
<style type="text/css">
	.st0{fill:#011627;}
	.st1{fill:#FFFFFF;}
	.st2{fill:#011627;stroke:#011627;stroke-width:4;stroke-miterlimit:10;}
</style>
<g id="Layer_2">
	<path class="st0" d="M53,18.2h93.2c9.3,0,17.7,3.8,23.9,10c6.2,6.1,10,14.5,10,23.9v93.2c0,9.3-3.8,17.7-10,23.9
		c-6.1,6.2-14.5,10-23.9,10H53c-9.3,0-17.7-3.8-23.9-10c-6.2-6.1-10-14.5-10-23.9V52c0-9.3,3.8-17.7,10-23.9
		C35.3,22,43.7,18.2,53,18.2z M147.5,45.9c1.8,0,3.3,1.5,3.3,3.3c0,1.8-1.5,3.3-3.3,3.3c-1.8,0-3.3-1.4-3.3-3.3
		C144.3,47.4,145.7,45.9,147.5,45.9z M145.2,26.2H54c-7.4,0-14.1,3-18.9,7.8c-4.8,4.9-7.8,11.6-7.8,18.9v91.3c0,7.4,3,14.1,7.8,18.9
		C39.9,168,46.6,171,54,171h91.3c7.4,0,14.1-3,18.9-7.8c4.8-4.9,7.8-11.6,7.8-18.9V53c0-7.4-3-14.1-7.8-18.9
		C159.3,29.2,152.6,26.2,145.2,26.2z"/>
	<circle class="st0" cx="148" cy="48" r="10"/>
	<circle class="st1" cx="148" cy="48" r="5"/>
</g>
<g id="Layer_1">
	<g id="Layer_x0020_1_1_">
		<g id="_2744577807152_1_">
			<path class="st2" d="M75.8,111.9c0.5,1,0.2,2.1-0.7,2.7c-0.9,0.5-2.1,0.2-2.7-0.7c-1.3-2.2-2.3-4.6-2.9-7c-0.7-2.5-1-5-1-7.5
				c0-8,3.3-15.3,8.6-20.5c5.3-5.3,12.6-8.5,20.7-8.5c8.1,0,15.4,3.2,20.8,8.5c5.3,5.3,8.6,12.5,8.6,20.5c0,8.8-4.6,17-10.9,22.4
				c-3.1,2.7-6.6,4.7-10.2,5.8c-3.7,1.1-7.4,1.2-10.8,0c-3.3-1.1-6.2-3.4-8.5-7l-4.9,24c0,0.2-0.1,0.4-0.1,0.5c0,0-0.1,0.1-0.1,0.2
				l0,0c-0.4,0.7-1.3,1.1-2.1,1c-0.2,0-0.4-0.1-0.6-0.2c-9-3.9-16.4-10.3-21.6-18.1c-5.2-7.9-8.2-17.3-8.2-27.2
				c0-13.6,5.5-26,14.5-34.9S85,51.2,98.6,51.2s26,5.5,34.9,14.5S148,87,148,100.6c0,13.2-5.2,25.2-13.6,34.1
				c-8.5,8.9-20.2,14.6-33.4,15.3c-1.1,0-2-0.8-2.1-1.9c0-1.1,0.8-2,1.9-2.1c12.1-0.6,22.9-5.9,30.7-14c7.8-8.2,12.5-19.2,12.5-31.4
				c0-12.5-5.1-23.9-13.3-32.1c-8.2-8.2-19.6-13.3-32.1-13.3s-23.9,5.1-32.1,13.3c-8.2,8.2-13.3,19.6-13.3,32.1
				c0,9.1,2.7,17.8,7.5,25c4.4,6.6,10.5,12.1,17.9,15.7l5.5-27.1c-1.3-4.4-1.5-9.1-0.8-13.5c0.9-5.4,3.2-10.3,6.7-13.7
				c0.8-0.7,2-0.7,2.8,0.1c0.5,0.5,0.6,1.2,0.5,1.8l-5.1,25.1c0.2,0.4,0.3,0.9,0.5,1.3c1.9,4.6,4.8,7.3,8,8.4
				c2.6,0.9,5.5,0.8,8.4-0.1c3-0.9,6-2.6,8.7-5c5.5-4.7,9.5-11.9,9.5-19.4c0-6.9-2.8-13.2-7.4-17.7c-4.6-4.5-10.9-7.4-18-7.4
				c-7,0-13.4,2.8-18,7.4c-4.6,4.5-7.4,10.8-7.4,17.7c0,2.2,0.3,4.4,0.9,6.5C73.8,108,74.7,110,75.8,111.9z"/>
		</g>
	</g>
</g>
</svg>
